<mxfile host="app.diagrams.net" modified="2023-12-17T06:01:07.104Z" agent="Mozilla/5.0 (X11; Ubuntu; Linux x86_64; rv:120.0) Gecko/20100101 Firefox/120.0" version="22.1.11" etag="_WvsDXNwRJpJVNYxQuc7" type="github">
  <diagram name="Page-1" id="jyJW4qe16mHeRe6o0_ro">
    <mxGraphModel>
      <root>
        <mxCell id="0" />
        <mxCell id="1" parent="0" />
      </root>
    </mxGraphModel>
  </diagram>
</mxfile>
